<svg width="100" height="100" viewBox="0 0 100 100" fill="none" xmlns="http://www.w3.org/2000/svg">
<rect width="100" height="100" rx="20" fill="#FF8B59"/>
<path d="M31.96 50.52C29.4 50.52 27.08 49.96 25 48.84C22.92 47.6667 21.2667 46.0133 20.04 43.88C18.8133 41.7467 18.2 39.2133 18.2 36.28C18.2 33.3467 18.8133 30.8133 20.04 28.68C21.2667 26.5467 22.92 24.92 25 23.8C27.08 22.6267 29.4267 22.04 32.04 22.04C34.6 22.04 36.8933 22.6267 38.92 23.8C41 24.92 42.6533 26.5467 43.88 28.68C45.1067 30.8133 45.72 33.3467 45.72 36.28C45.72 39.2133 45.1067 41.7467 43.88 43.88C42.6533 46.0133 41 47.6667 38.92 48.84C36.84 49.96 34.52 50.52 31.96 50.52ZM28.92 79L60.52 23H70.52L38.92 79H28.92ZM31.96 43.4C33.5067 43.4 34.84 42.8133 35.96 41.64C37.08 40.4133 37.64 38.6267 37.64 36.28C37.64 33.9333 37.08 32.1467 35.96 30.92C34.8933 29.6933 33.56 29.08 31.96 29.08C30.36 29.08 29 29.6933 27.88 30.92C26.8133 32.1467 26.28 33.9333 26.28 36.28C26.28 38.6267 26.8133 40.4133 27.88 41.64C29 42.8133 30.36 43.4 31.96 43.4ZM67.8 79.96C65.24 79.96 62.92 79.4 60.84 78.28C58.76 77.1067 57.1067 75.4533 55.88 73.32C54.6533 71.1867 54.04 68.6533 54.04 65.72C54.04 62.7867 54.6533 60.28 55.88 58.2C57.1067 56.0667 58.76 54.44 60.84 53.32C62.92 52.1467 65.2667 51.56 67.88 51.56C70.44 51.56 72.7333 52.1467 74.76 53.32C76.84 54.44 78.4933 56.0667 79.72 58.2C80.9467 60.28 81.56 62.7867 81.56 65.72C81.56 68.6533 80.9467 71.1867 79.72 73.32C78.4933 75.4533 76.84 77.1067 74.76 78.28C72.7333 79.4 70.4133 79.96 67.8 79.96ZM67.8 72.84C69.4 72.84 70.7333 72.2533 71.8 71.08C72.92 69.8533 73.48 68.0667 73.48 65.72C73.48 63.3733 72.92 61.5867 71.8 60.36C70.7333 59.1333 69.4 58.52 67.8 58.52C66.2 58.52 64.84 59.1333 63.72 60.36C62.6533 61.5867 62.12 63.3733 62.12 65.72C62.12 68.0667 62.6533 69.8533 63.72 71.08C64.84 72.2533 66.2 72.84 67.8 72.84Z" fill="white"/>
</svg>
